<svg class="icon" xmlns="http://www.w3.org/2000/svg">
    <g id="icon-arrow-left" fill="none" xmlns="http://www.w3.org/2000/svg">
        <path d="M11.75 5.25H2.855L5.5775 1.98C5.7048 1.82684 5.76605 1.62938 5.74777 1.43106C5.72948 1.23274 5.63316 1.0498 5.48 0.922501C5.32684 0.795197 5.12938 0.73395 4.93106 0.752235C4.73274 0.77052 4.5498 0.866838 4.4225 1.02L0.6725 5.52C0.647271 5.55579 0.624709 5.5934 0.605 5.6325C0.605 5.67 0.605 5.6925 0.5525 5.73C0.518505 5.816 0.500706 5.90753 0.5 6C0.500706 6.09247 0.518505 6.18401 0.5525 6.27C0.5525 6.3075 0.5525 6.33 0.605 6.3675C0.624709 6.40661 0.647271 6.44421 0.6725 6.48L4.4225 10.98C4.49302 11.0647 4.58132 11.1327 4.68113 11.1794C4.78095 11.2261 4.88982 11.2502 5 11.25C5.17524 11.2503 5.34507 11.1893 5.48 11.0775C5.55594 11.0145 5.61872 10.9372 5.66473 10.85C5.71075 10.7627 5.7391 10.6672 5.74815 10.569C5.75721 10.4707 5.7468 10.3717 5.71751 10.2775C5.68823 10.1833 5.64065 10.0958 5.5775 10.02L2.855 6.75H11.75C11.9489 6.75 12.1397 6.67098 12.2803 6.53033C12.421 6.38968 12.5 6.19891 12.5 6C12.5 5.80109 12.421 5.61032 12.2803 5.46967C12.1397 5.32902 11.9489 5.25 11.75 5.25Z" fill="currentColor"/>
    </g>

    <g id="icon-notification" fill="none" xmlns="http://www.w3.org/2000/svg">
        <path d="M17.5201 13.7224L15.7201 11.9124V7.45238C15.744 5.7962 15.1679 4.18729 14.0982 2.92271C13.0285 1.65814 11.5373 0.823311 9.90007 0.572376C8.94989 0.447243 7.98394 0.526191 7.06668 0.803951C6.14942 1.08171 5.30194 1.5519 4.5808 2.18314C3.85965 2.81438 3.28142 3.59215 2.88468 4.46457C2.48794 5.33699 2.28182 6.28399 2.28007 7.24238V11.9124L0.480073 13.7224C0.253979 13.9522 0.100657 14.2437 0.0392733 14.5602C-0.0221099 14.8767 0.0111694 15.2043 0.134951 15.502C0.258732 15.7997 0.467524 16.0544 0.735224 16.2341C1.00292 16.4138 1.31766 16.5106 1.64007 16.5124H5.00007V16.8524C5.04678 17.8676 5.49403 18.8229 6.2438 19.5089C6.99357 20.1949 7.98473 20.5558 9.00007 20.5124C10.0154 20.5558 11.0066 20.1949 11.7563 19.5089C12.5061 18.8229 12.9534 17.8676 13.0001 16.8524V16.5124H16.3601C16.6825 16.5106 16.9972 16.4138 17.2649 16.2341C17.5326 16.0544 17.7414 15.7997 17.8652 15.502C17.989 15.2043 18.0223 14.8767 17.9609 14.5602C17.8995 14.2437 17.7462 13.9522 17.5201 13.7224ZM11.0001 16.8524C10.9446 17.3334 10.7057 17.7744 10.3331 18.0837C9.96057 18.3929 9.48306 18.5465 9.00007 18.5124C8.51709 18.5465 8.03957 18.3929 7.667 18.0837C7.29443 17.7744 7.05553 17.3334 7.00007 16.8524V16.5124H11.0001V16.8524Z" fill="currentColor"/>
    </g>

    <g id="icon-angle-down" fill="none" xmlns="http://www.w3.org/2000/svg">
        <path d="M5.99996 5.51238C5.82472 5.51273 5.6549 5.45169 5.51996 5.33988L1.01996 1.58988C0.8668 1.46258 0.770482 1.27965 0.752197 1.08133C0.733912 0.883006 0.795159 0.685546 0.922463 0.532383C1.04977 0.37922 1.2327 0.282903 1.43102 0.264618C1.62934 0.246333 1.8268 0.307579 1.97996 0.434883L5.99996 3.79488L10.02 0.554884C10.0967 0.492584 10.185 0.44606 10.2797 0.417986C10.3745 0.389913 10.4738 0.380842 10.5721 0.391297C10.6704 0.401751 10.7656 0.431524 10.8523 0.478904C10.9391 0.526284 11.0156 0.590338 11.0775 0.667383C11.1461 0.744499 11.1982 0.834969 11.2303 0.933124C11.2624 1.03128 11.2738 1.13501 11.264 1.2378C11.2541 1.3406 11.2231 1.44025 11.173 1.53052C11.1228 1.62079 11.0546 1.69973 10.9725 1.76238L6.47246 5.38488C6.33365 5.47902 6.16729 5.52391 5.99996 5.51238Z" fill="currentColor"/>
    </g>

    <g id="icon-developer" fill="none" xmlns="http://www.w3.org/2000/svg">
        <path d="M20 3.51239H4C2.897 3.51239 2 4.40939 2 5.51239V19.5124C2 20.6154 2.897 21.5124 4 21.5124H20C21.103 21.5124 22 20.6154 22 19.5124V5.51239C22 4.40939 21.103 3.51239 20 3.51239ZM4 19.5124V7.51239H20L20.002 19.5124H4Z" fill="currentColor"/>
        <path d="M9.29294 9.80539L5.58594 13.5124L9.29294 17.2194L10.7069 15.8054L8.41394 13.5124L10.7069 11.2194L9.29294 9.80539ZM14.7069 9.80539L13.2929 11.2194L15.5859 13.5124L13.2929 15.8054L14.7069 17.2194L18.4139 13.5124L14.7069 9.80539Z" fill="black"/>
    </g>


</svg>
